# xmcd
#
# Track frame offsets:
#	180
#	23187
#	42584
#	58528
#	74825
#	97825
#	113926
#	132572
#	150209
#	173053
#	191247
#	210549
#	230950
#	247463
#
# Disc length: 3568
#
# Revision: 3
# Processed by: cddbd v1.5.1PL0 Copyright (c) Steve Scherf et al.
# Submitted via: EasyCDDAExtractor 6.0.0.1
# Normalized: r2:TDELIM( - )
#
DISCID=d40dee0e
DTITLE=Various Artist - Slow and Easy
DYEAR=1996
DGENRE=Blues
TTITLE0=Michael Bolton - Sai I Loved You But I Lied
TTITLE1=Tony Braxton - Breathe Again
TTITLE2=Mr. Big - Wild World
TTITLE3=Ruby Turner - Stay With Me Baby
TTITLE4=Bee Gees - From Whom The Bells Tolls
TTITLE5=Mariah Carrey - Without You
TTITLE6=Johnny Clegg and Savuka - The Corossing (O Syeza)
TTITLE7=SuperFan - Superstar
TTITLE8=Prince feat. Rosie Gaines - Nothing Comares To You
TTITLE9=Heart - The Woman In Me
TTITLE10=Terence Trent D'Arby - Delicate
TTITLE11=Beverly Craven - The Winner Takes It All
TTITLE12=Rick Astley - Hopelessly
TTITLE13=Jodeci - Cry For You
EXTD=
EXTT0=
EXTT1=
EXTT2=
EXTT3=
EXTT4=
EXTT5=
EXTT6=
EXTT7=
EXTT8=
EXTT9=
EXTT10=
EXTT11=
EXTT12=
EXTT13=
PLAYORDER=
